<!--?xml version="1.0" standalone="no"?-->
              <svg id="sw-js-blob-svg" viewBox="0 0 100 100" xmlns="http://www.w3.org/2000/svg" version="1.1">
                    <defs> 
                        <linearGradient id="sw-gradient" x1="0" x2="1" y1="1" y2="0">
                            <stop id="stop1" stop-color="rgba(4, 170, 109, 1)" offset="0%"></stop>
                            <stop id="stop2" stop-color="rgba(251, 168, 31, 1)" offset="100%"></stop>
                        </linearGradient>
                    </defs>
                <path fill="rgba(4, 170, 109, 1)" d="M28.1,-32.6C35.4,-27.3,39.8,-17.5,40.3,-8.1C40.8,1.4,37.5,10.5,32.7,19C27.9,27.4,21.8,35.2,13.3,39.7C4.8,44.1,-6,45.3,-14.1,41.3C-22.2,37.2,-27.5,28.1,-31.9,19.1C-36.3,10.1,-39.9,1.2,-39.7,-8.3C-39.5,-17.7,-35.7,-27.8,-28.4,-33.2C-21.2,-38.6,-10.6,-39.2,-0.1,-39C10.4,-38.9,20.7,-38,28.1,-32.6Z" width="100%" height="100%" transform="translate(50 50)" stroke-width="0" style="transition: all 0.3s ease 0s;"></path>
              </svg>